<?xml version="1.0" encoding="UTF-8" standalone="no"?>
<!-- Created with Inkscape (http://www.inkscape.org/) -->

<svg
   width="210mm"
   height="297mm"
   viewBox="0 0 210 297"
   version="1.1"
   id="svg1"
   inkscape:export-filename="isogrid.png"
   inkscape:export-xdpi="96"
   inkscape:export-ydpi="96"
   inkscape:version="1.3.2 (091e20e, 2023-11-25)"
   sodipodi:docname="drawing.svg"
   xmlns:inkscape="http://www.inkscape.org/namespaces/inkscape"
   xmlns:sodipodi="http://sodipodi.sourceforge.net/DTD/sodipodi-0.dtd"
   xmlns="http://www.w3.org/2000/svg"
   xmlns:svg="http://www.w3.org/2000/svg">
  <sodipodi:namedview
     id="namedview1"
     pagecolor="#ffffff"
     bordercolor="#000000"
     borderopacity="0.25"
     inkscape:showpageshadow="2"
     inkscape:pageopacity="0.0"
     inkscape:pagecheckerboard="0"
     inkscape:deskcolor="#d1d1d1"
     inkscape:document-units="mm"
     inkscape:export-bgcolor="#ffffffff"
     inkscape:zoom="0.56539197"
     inkscape:cx="377.61414"
     inkscape:cy="623.46128"
     inkscape:window-width="1680"
     inkscape:window-height="928"
     inkscape:window-x="0"
     inkscape:window-y="25"
     inkscape:window-maximized="1"
     inkscape:current-layer="layer1" />
  <defs
     id="defs1">
    <rect
       x="210.47345"
       y="562.44167"
       width="0"
       height="40.679743"
       id="rect19" />
  </defs>
  <g
     inkscape:label="Layer 1"
     inkscape:groupmode="layer"
     id="layer1">
    <path
       style="fill:#000000;stroke-width:0.264583"
       d="M 93.124921,49.136265 120.26686,48.668302"
       id="path2" />
    <path
       style="fill:none;stroke:#000000;stroke-width:0.264583"
       d="m 97.336601,31.821583 c -0.935929,0.623951 -1.824493,1.325583 -2.807785,1.871855 -0.431202,0.239557 -0.935929,0.311978 -1.403895,0.467966 -0.623951,0.311976 -1.277739,0.570317 -1.871856,0.935929 -4.009067,2.467115 -3.282053,2.395318 -6.551504,4.21168 -5.345887,2.969937 -11.042832,5.755397 -16.378753,8.42336 -0.394623,0.19731 -0.541308,0.738616 -0.935929,0.935929 -0.348538,0.174268 -3.743716,1.490977 -3.743716,1.871855 0,0.100587 2.206905,-0.132916 2.339821,0 0.110302,0.110303 -0.110299,0.357667 0,0.467966 0.220602,0.220599 0.656889,-0.13952 0.935929,0 1.03087,0.515435 2.011648,1.555832 3.275751,1.871859 1.265102,0.316274 2.499923,0.781997 3.743716,1.403892 1.006094,0.503047 1.801694,1.368811 2.807788,1.871858 0.882401,0.441201 1.961822,0.42835 2.807785,0.935929 2.339824,1.403893 0,0.467964 1.403895,1.403893 0.738338,0.492228 1.567219,0.678394 2.339821,0.935929 2.921291,0.973764 5.723893,2.861947 8.42336,4.21168 0.2359,0.117951 1.71682,0.780893 1.871858,0.935929 0.110299,0.110299 -0.110302,0.357663 0,0.467963 0.437115,0.437118 1.902706,0.498814 2.339821,0.935929 0.09486,0.09486 0.628169,1.711656 0.93593,1.403895 0.27972,-0.279723 0.493453,-1.143508 1.403892,-1.871858 4.69029,-3.752234 9.38361,-8.625139 14.5069,-11.69911 1.18597,-0.711584 2.59366,-1.10516 3.74371,-1.871859 1.11745,-0.74496 2.15319,-1.59145 3.27575,-2.339821 0.92707,0.04671 0.22133,-0.68929 0.46797,-0.935929 0.35358,-0.353581 1.40389,-0.419137 1.40389,-0.467966 0,-0.311976 -0.65689,0.13952 -0.93593,0 -0.28342,-0.141711 -2.96038,-2.024457 -3.27575,-2.339822 -0.24664,-0.246639 -0.22132,-0.68929 -0.46796,-0.935929 -1.43414,-1.434139 -3.38055,-1.924256 -5.14761,-2.807787 -1.35022,-0.675108 -2.48333,-1.967529 -3.74372,-2.807785 -0.51317,-0.342117 -3.22879,-1.700218 -3.74371,-1.871858 -0.29597,-0.09865 -0.63996,0.09866 -0.93593,0 -0.74416,-0.248052 -1.16083,-1.048377 -1.87186,-1.403893 -2.186323,-1.093163 -2.755823,-1.785254 -4.211679,-4.211679 z"
       id="path6" />
    <path
       style="fill:none;stroke:#000000;stroke-width:0.264583"
       d="m 68.661253,50.432453 c -0.93593,0.623951 -1.82449,1.325583 -2.80779,1.871855 -0.4312,0.239557 -0.93592,0.311978 -1.40389,0.467966 -0.62395,0.311976 -1.27774,0.570317 -1.87186,0.935929 -4.009064,2.467115 -3.28205,2.395318 -6.551501,4.21168 -5.345887,2.969937 -11.042832,5.755397 -16.378753,8.42336 -0.394623,0.19731 -0.541308,0.738616 -0.935929,0.935929 -0.348538,0.174268 -3.743716,1.490977 -3.743716,1.871855 0,0.100587 2.206905,-0.132916 2.339821,0 0.110302,0.110303 -0.110299,0.357667 0,0.467966 0.220602,0.220599 0.656889,-0.13952 0.935929,0 1.03087,0.515435 2.011648,1.555832 3.275751,1.871859 1.265102,0.316274 2.499923,0.781997 3.743716,1.403892 1.006094,0.503047 1.801694,1.368811 2.807788,1.871858 0.882401,0.441201 1.961822,0.42835 2.807785,0.935929 2.339824,1.403893 0,0.467964 1.403895,1.403893 0.738338,0.492228 1.567219,0.678394 2.339821,0.935929 2.921291,0.973764 5.723893,2.861947 8.423363,4.21168 0.2359,0.117951 1.71682,0.780893 1.87186,0.935929 0.11029,0.110299 -0.11031,0.357663 0,0.467963 0.43711,0.437118 1.9027,0.498814 2.33982,0.935929 0.0949,0.09486 0.62817,1.711656 0.93593,1.403895 0.27972,-0.279723 0.49345,-1.143508 1.40389,-1.871858 4.69029,-3.752234 9.38361,-8.625139 14.5069,-11.69911 1.18597,-0.711584 2.59366,-1.10516 3.74371,-1.871859 1.11745,-0.74496 2.15319,-1.59145 3.27575,-2.339821 0.92707,0.04671 0.22133,-0.68929 0.46797,-0.935929 0.35358,-0.353581 1.40389,-0.419137 1.40389,-0.467966 0,-0.311976 -0.65689,0.13952 -0.93593,0 -0.28342,-0.141711 -2.96038,-2.024457 -3.27575,-2.339822 -0.24664,-0.246639 -0.22132,-0.68929 -0.46796,-0.935929 -1.43414,-1.434139 -3.38055,-1.924256 -5.14761,-2.807787 -1.35022,-0.675108 -2.48333,-1.967529 -3.74372,-2.807785 -0.51317,-0.342117 -3.22879,-1.700218 -3.74371,-1.871858 -0.29597,-0.09865 -0.63996,0.09866 -0.93593,0 -0.74416,-0.248052 -1.16083,-1.048377 -1.87186,-1.403893 -2.18632,-1.093163 -2.75582,-1.785254 -4.21168,-4.211679 z"
       id="path6-8" />
    <path
       style="fill:none;stroke:#000000;stroke-width:0.264583"
       d="m 99.701342,67.347891 c -0.93593,0.623951 -1.82449,1.325583 -2.80779,1.871855 -0.4312,0.239557 -0.93592,0.311978 -1.40389,0.467966 -0.62395,0.311976 -1.27774,0.570317 -1.87186,0.935929 -4.00906,2.467115 -3.28205,2.395318 -6.5515,4.21168 -5.34589,2.969937 -11.04283,5.755397 -16.37875,8.42336 -0.39463,0.19731 -0.54131,0.738616 -0.93593,0.935929 -0.34854,0.174268 -3.743719,1.490977 -3.743719,1.871855 0,0.100587 2.206905,-0.132916 2.339821,0 0.110302,0.110303 -0.110299,0.357667 0,0.467966 0.220602,0.220599 0.656888,-0.13952 0.935928,0 1.03087,0.515435 2.01165,1.555832 3.27575,1.871859 1.2651,0.316274 2.49993,0.781997 3.74372,1.403892 1.00609,0.503047 1.80169,1.368811 2.80779,1.871858 0.8824,0.441201 1.96182,0.42835 2.80778,0.935929 2.33983,1.403893 0,0.467964 1.4039,1.403893 0.73833,0.492228 1.56722,0.678394 2.33982,0.935929 2.92129,0.973764 5.72389,2.861947 8.42336,4.211681 0.2359,0.11795 1.71682,0.78089 1.87186,0.935928 0.11029,0.1103 -0.11031,0.35766 0,0.46796 0.43711,0.43712 1.9027,0.49881 2.33982,0.93593 0.0949,0.0949 0.62817,1.71166 0.93593,1.40389 0.27972,-0.27972 0.49345,-1.1435 1.403888,-1.87185 4.69029,-3.752235 9.38361,-8.62514 14.5069,-11.699111 1.18597,-0.711584 2.59366,-1.10516 3.74371,-1.871859 1.11745,-0.74496 2.15319,-1.59145 3.27575,-2.339821 0.92707,0.04671 0.22133,-0.68929 0.46797,-0.935929 0.35358,-0.353581 1.40389,-0.419137 1.40389,-0.467966 0,-0.311976 -0.65689,0.13952 -0.93593,0 -0.28342,-0.141711 -2.96038,-2.024457 -3.27575,-2.339822 -0.24664,-0.246639 -0.22132,-0.68929 -0.46796,-0.935929 -1.43414,-1.434139 -3.38055,-1.924256 -5.14761,-2.807787 -1.35022,-0.675108 -2.48333,-1.967529 -3.74372,-2.807785 -0.51317,-0.342117 -3.22879,-1.700218 -3.74371,-1.871858 -0.29597,-0.09865 -0.63996,0.09866 -0.93593,0 -0.74416,-0.248052 -1.16083,-1.048377 -1.87186,-1.403893 -2.18632,-1.093163 -2.75582,-1.785254 -4.211678,-4.211679 z"
       id="path6-5" />
    <path
       style="fill:none;stroke:#000000;stroke-width:0.264583"
       d="m 39.71716,69.731022 c -0.93593,0.623951 -1.82449,1.325583 -2.80779,1.871855 -0.4312,0.239557 -0.93592,0.311978 -1.40389,0.467966 -0.62395,0.311976 -1.27774,0.570317 -1.87186,0.935929 -4.009064,2.467115 -3.28205,2.395318 -6.551501,4.21168 -5.345887,2.969937 -11.042832,5.755397 -16.378753,8.42336 -0.394623,0.19731 -0.541308,0.738616 -0.9359289,0.935929 -0.348538,0.174268 -3.743716,1.490977 -3.743716,1.871855 0,0.100587 2.206905,-0.132916 2.339821,0 0.110302,0.110303 -0.110299,0.357667 0,0.467966 0.220602,0.220599 0.656889,-0.13952 0.935929,0 1.0308699,0.515435 2.0116479,1.555832 3.2757509,1.871859 1.265102,0.316274 2.499923,0.781997 3.743716,1.403892 1.006094,0.503047 1.801694,1.368811 2.807788,1.871858 0.882401,0.441201 1.961822,0.42835 2.807785,0.935929 2.339824,1.403893 0,0.467964 1.403895,1.403893 0.738338,0.492228 1.567219,0.678394 2.339821,0.935929 2.921291,0.973764 5.723893,2.861948 8.423363,4.211678 0.2359,0.11795 1.71682,0.7809 1.87186,0.93593 0.11029,0.1103 -0.11031,0.35766 0,0.46796 0.43711,0.43712 1.9027,0.49882 2.33982,0.93593 0.0949,0.0949 0.62817,1.71166 0.93593,1.4039 0.27972,-0.27973 0.49345,-1.14351 1.40389,-1.87186 4.69029,-3.752234 9.38361,-8.625139 14.5069,-11.69911 1.18597,-0.711584 2.59366,-1.10516 3.74371,-1.871859 1.11745,-0.74496 2.15319,-1.59145 3.27575,-2.339821 0.92707,0.04671 0.22133,-0.68929 0.46797,-0.935929 0.35358,-0.353581 1.40389,-0.419137 1.40389,-0.467966 0,-0.311976 -0.65689,0.13952 -0.93593,0 -0.28342,-0.141711 -2.96038,-2.024457 -3.27575,-2.339822 -0.24664,-0.246639 -0.22132,-0.68929 -0.46796,-0.935929 -1.43414,-1.434139 -3.38055,-1.924256 -5.14761,-2.807787 -1.35022,-0.675108 -2.48333,-1.967529 -3.74372,-2.807785 -0.51317,-0.342117 -3.22879,-1.700218 -3.74371,-1.871858 -0.29597,-0.09865 -0.63996,0.09866 -0.93593,0 -0.74416,-0.248052 -1.16083,-1.048377 -1.87186,-1.403893 -2.18632,-1.093163 -2.75582,-1.785254 -4.21168,-4.211679 z"
       id="path6-8-2" />
    <path
       style="fill:none;stroke:#000000;stroke-width:0.264583"
       d="m 70.757247,86.64646 c -0.93593,0.623951 -1.824488,1.325583 -2.807788,1.871855 -0.4312,0.239557 -0.93592,0.311978 -1.40389,0.467966 -0.62395,0.311976 -1.27774,0.570317 -1.87186,0.935929 -4.00906,2.467115 -3.28205,2.395318 -6.5515,4.21168 -5.34589,2.969937 -11.04283,5.755397 -16.37875,8.42336 -0.39463,0.19731 -0.54131,0.73861 -0.93593,0.93593 -0.34854,0.17427 -3.743719,1.49097 -3.743719,1.87185 0,0.10059 2.206905,-0.13291 2.339821,0 0.110302,0.11031 -0.110299,0.35767 0,0.46797 0.220602,0.2206 0.656888,-0.13952 0.935928,0 1.03087,0.51543 2.01165,1.55583 3.27575,1.87186 1.2651,0.31627 2.49993,0.78199 3.74372,1.40389 1.00609,0.50305 1.80169,1.36881 2.80779,1.87186 0.8824,0.4412 1.96182,0.42835 2.80778,0.93593 2.33983,1.40389 0,0.46796 1.4039,1.40389 0.73833,0.49223 1.56722,0.67839 2.33982,0.93593 2.92129,0.97376 5.72389,2.86195 8.42336,4.21168 0.2359,0.11795 1.71682,0.78089 1.87186,0.93593 0.11029,0.1103 -0.11031,0.35766 0,0.46796 0.43711,0.43712 1.9027,0.49881 2.339818,0.93593 0.0949,0.0949 0.62817,1.71166 0.93593,1.40389 0.27972,-0.27972 0.49345,-1.1435 1.40389,-1.87185 4.69029,-3.75224 9.38361,-8.62514 14.5069,-11.69911 1.18597,-0.71159 2.59366,-1.10516 3.74371,-1.87186 1.11745,-0.74496 2.15319,-1.59145 3.27575,-2.33982 0.92707,0.0467 0.22133,-0.68929 0.46797,-0.93593 0.35358,-0.35358 1.40389,-0.41914 1.40389,-0.46797 0,-0.31197 -0.65689,0.13952 -0.93593,0 -0.28342,-0.14171 -2.96038,-2.02445 -3.27575,-2.33982 -0.24664,-0.24664 -0.22132,-0.689289 -0.46796,-0.935928 -1.43414,-1.434139 -3.38055,-1.924256 -5.14761,-2.807787 -1.35022,-0.675108 -2.48333,-1.967529 -3.74372,-2.807785 -0.51317,-0.342117 -3.22879,-1.700218 -3.74371,-1.871858 -0.29597,-0.09865 -0.63996,0.09866 -0.93593,0 -0.74416,-0.248052 -1.16083,-1.048377 -1.87186,-1.403893 -2.18632,-1.093163 -2.75582,-1.785254 -4.21168,-4.211679 z"
       id="path6-5-3" />
    <path
       style="fill:none;stroke:#000000;stroke-width:0.264583"
       d="m 129.19626,49.259231 c -0.93593,0.623951 -1.8245,1.325583 -2.80779,1.871855 -0.4312,0.239557 -0.93593,0.311978 -1.40389,0.467966 -0.62395,0.311976 -1.27774,0.570317 -1.87186,0.935929 -4.00907,2.467115 -3.28205,2.395318 -6.5515,4.21168 -5.34589,2.969937 -11.04284,5.755397 -16.37876,8.42336 -0.394621,0.19731 -0.541306,0.738616 -0.935927,0.935929 -0.348538,0.174268 -3.743716,1.490977 -3.743716,1.871855 0,0.100587 2.206905,-0.132916 2.339821,0 0.110302,0.110303 -0.110299,0.357667 0,0.467966 0.220602,0.220599 0.656889,-0.13952 0.935929,0 1.03087,0.515435 2.011643,1.555832 3.275753,1.871859 1.2651,0.316274 2.49992,0.781997 3.74372,1.403892 1.00609,0.503047 1.80169,1.368811 2.80778,1.871858 0.8824,0.441201 1.96183,0.42835 2.80779,0.935929 2.33982,1.403893 0,0.467964 1.40389,1.403893 0.73834,0.492228 1.56722,0.678394 2.33982,0.935929 2.9213,0.973764 5.7239,2.861947 8.42336,4.21168 0.2359,0.117951 1.71682,0.780893 1.87186,0.935929 0.1103,0.110299 -0.1103,0.357663 0,0.467963 0.43712,0.437118 1.90271,0.498814 2.33982,0.935929 0.0949,0.09486 0.62817,1.711656 0.93593,1.403895 0.27972,-0.279723 0.49346,-1.143508 1.4039,-1.871858 4.69028,-3.752234 9.3836,-8.625139 14.50689,-11.69911 1.18597,-0.711584 2.59366,-1.10516 3.74371,-1.871859 1.11746,-0.74496 2.15319,-1.59145 3.27576,-2.339821 0.92706,0.04671 0.22132,-0.68929 0.46796,-0.935929 0.35358,-0.353581 1.4039,-0.419137 1.4039,-0.467966 0,-0.311976 -0.6569,0.13952 -0.93594,0 -0.28342,-0.141711 -2.96037,-2.024457 -3.27574,-2.339822 -0.24665,-0.246639 -0.22133,-0.68929 -0.46797,-0.935929 -1.43414,-1.434139 -3.38055,-1.924256 -5.14761,-2.807787 -1.35021,-0.675108 -2.48333,-1.967529 -3.74372,-2.807785 -0.51317,-0.342117 -3.22879,-1.700218 -3.74371,-1.871858 -0.29596,-0.09865 -0.63996,0.09866 -0.93592,0 -0.74416,-0.248052 -1.16083,-1.048377 -1.87186,-1.403893 -2.18633,-1.093163 -2.75583,-1.785254 -4.21168,-4.211679 z"
       id="path6-3" />
    <path
       style="fill:none;stroke:#000000;stroke-width:0.264583"
       d="m 119.79889,22.930257 c -0.93592,0.155988 -1.87185,0.311976 -2.80778,0.467964 -0.15599,0.155989 -0.27066,0.369309 -0.46797,0.467965 -0.27904,0.13952 -0.71533,-0.220601 -0.93593,0 -0.23398,0.233982 -0.23398,0.701947 -0.46796,0.935929 -0.1961,0.196097 -1.12028,0.326157 -1.40389,0.467964 -0.15096,0.07548 -1.82963,2.213144 -1.87186,2.339821 -0.0987,0.295968 0.0986,0.639964 0,0.935929 -0.13952,0.418561 -0.73862,0.541309 -0.93593,0.935929 -0.24958,0.499163 0.24958,1.372696 0,1.871859 -0.78583,1.571672 -0.78165,4.520237 0,6.083538 0.13952,0.27904 -0.13952,0.656889 0,0.935929 0.30728,0.61455 1.37684,0.688422 1.87186,0.935929 0.19731,0.09866 0.25868,0.398203 0.46796,0.467963 0.69177,0.23059 3.56759,0.322048 4.21168,0 1.0347,-0.517347 0.14522,-0.290438 0.46797,-0.935929 0.19731,-0.394621 0.79641,-0.517369 0.93593,-0.935929 0.0986,-0.295966 -0.0987,-0.639961 0,-0.935929 0.0698,-0.20928 0.3982,-0.258683 0.46796,-0.467963 0.31965,-0.958954 0.46796,-2.242267 0.46796,-3.275751 0,-3.431738 0,-6.863479 0,-10.295218 z"
       id="path7" />
    <path
       style="fill:none;stroke:#000000;stroke-width:0.264583"
       d="m 140.38933,40.244942 c 1.21981,1.219806 2.19595,2.501868 3.74371,3.275751 1.0955,0.547746 4.65437,1.90977 5.61558,0.467963 0.66737,-1.001056 0.80838,-2.283222 1.40389,-3.275751 0.227,-0.378327 0.77207,-0.526282 0.93593,-0.935929 0.1738,-0.434493 -0.1135,-0.949901 0,-1.403892 0.0156,-0.06221 1.41007,-1.871858 0.93593,-1.871858 -0.81576,0 -0.46797,1.955892 -0.46797,2.339821 0,5.353714 -0.6555,10.672067 -1.40389,15.910793 -0.14484,1.013923 0.24986,2.276324 0,3.27575 -0.29521,1.180838 -0.46796,2.026 -0.46796,3.275751"
       id="path8" />
    <path
       style="fill:none;stroke:#000000;stroke-width:0.264583"
       d="m 159.57587,60.367412 c -5.45958,0 -10.91917,0 -16.37875,0"
       id="path9" />
    <path
       style="fill:none;stroke:#000000;stroke-width:0.264583"
       d="m 69.726701,22.462293 c -0.371073,2.575078 -0.730372,5.331321 -0.467966,7.955395 0.416412,4.164115 0.007,3.557934 3.275753,4.211679 1.000657,0.200131 0.778814,0.832313 1.871856,0.467966 1.028081,-0.342693 1.278482,-3.989877 1.403895,-4.679645 0.433768,-2.385732 1.079365,-5.977756 0.467963,-8.42336 -0.107006,-0.428028 -0.517369,-0.796408 -0.935929,-0.935929 -0.909548,-0.303182 -2.420131,0.42781 -3.275751,0 -0.886153,-0.443076 -1.236731,-0.935928 -2.339821,-0.935928"
       id="path10" />
    <path
       style="fill:none;stroke:#000000;stroke-width:0.264583"
       d="m 38.373084,42.584764 c 1.690291,-0.143688 2.6655,-1.800715 3.743714,-2.339822 1.947558,-0.973778 -0.500269,0.03231 0.467966,-0.935929 0.110299,-0.110302 0.357663,0.1103 0.467963,0 0.110302,-0.110302 0.155988,-0.467966 0,-0.467966 -0.155988,0 0,0.311978 0,0.467966 0,0.895927 -0.07328,1.928363 0,2.807785 0.328446,3.941352 0.935929,7.765452 0.935929,11.699113"
       id="path11" />
    <path
       style="fill:none;stroke:#000000;stroke-width:0.264583"
       d="m 36.969189,56.623695 c 3.540149,-0.139525 6.952718,-0.434588 9.827254,-1.871855 0.607457,-0.303731 1.80984,-2.277806 2.339822,-2.807788"
       id="path12" />
    <path
       style="fill:none;stroke:#000000;stroke-width:0.264583"
       d="m 6.5515021,64.111126 c 1.6021746,-0.361225 10.8124489,-1.305359 11.6991109,0.467966 1.69922,3.39844 -0.05156,13.12019 -4.21168,14.506897 -0.638577,0.212858 -2.131319,0 -2.807787,0 -0.164131,0 -2.1607916,0.179031 -2.3398219,0 -1.1604326,-1.160433 3.6155139,-3.50525 4.2116799,-3.743716 2.123214,-0.849286 4.767386,-1.964476 7.019467,-2.339822 1.114356,-0.185727 2.661609,-0.107262 3.743715,-0.467963 0.714772,-0.238257 0.546245,-0.467966 1.403893,-0.467966"
       id="path13" />
    <path
       style="fill:none;stroke:#000000;stroke-width:0.264583"
       d="m 127.28633,16.378755 c 1.53423,-2.268936 4.13542,-3.939571 6.5515,-5.147609 0.93422,-0.467111 4.5837,-0.09594 5.14761,0.467965 0.41516,0.415161 0.54474,1.753044 0.93592,2.339822 1.15443,1.731633 1.45099,3.837899 2.33983,5.615573 0.22456,0.449133 -0.14981,1.422452 0,1.871858 0.16157,0.484726 0.7038,0.939639 0.93593,1.403893 0.27878,0.55757 0.51333,1.917224 0.93592,2.339822 0.11031,0.110301 0.32845,-0.06976 0.46797,0 0.70698,0.353491 1.12803,1.623914 1.87186,1.871858 1.48112,0.493707 3.43278,0.712941 5.1476,0.467963 2.53246,-0.361778 3.88951,-2.017645 5.61558,-3.743714 1.52298,-1.522981 2.70092,-3.168881 4.21168,-4.679644"
       id="path14" />
    <path
       style="fill:none;stroke:#000000;stroke-width:0.264583"
       d="m 150.21658,12.167075 c -0.62395,0.155988 -1.2747,0.229103 -1.87186,0.467965 -1.27168,0.508675 -1.946,2.413969 -2.80778,3.275751 -0.31198,0.155988 -0.62395,0.311976 -0.93593,0.467964 0,0.155988 0.1103,0.357664 0,0.467965 -0.1103,0.1103 -0.35766,-0.110301 -0.46797,0 -0.1103,0.1103 0.11031,0.357664 0,0.467964 -0.20266,0.202669 -1.56983,0.73458 -1.87185,0.935929 -1.26039,0.840256 -2.3935,2.132679 -3.74372,2.807786 -0.28361,0.141808 -1.20779,0.271867 -1.40389,0.467965 -0.1103,0.1103 0.1103,0.357664 0,0.467964 -0.15599,0.155988 -1.24791,0.311977 -1.4039,0.467965 -0.22059,0.2206 0.22061,0.715328 0,0.935928 -0.11029,0.110301 -0.35766,-0.1103 -0.46796,0 -0.63145,0.631455 -0.73371,1.669644 -1.40389,2.339823"
       id="path15" />
    <path
       style="fill:none;stroke:#000000;stroke-width:0.264583"
       d="m 43.988656,14.506897 c -0.312505,2.483113 0.627793,3.485015 2.807787,4.21168 0.541428,0.180476 1.368994,-0.251432 1.871859,0 0.496062,0.248031 1.155888,0.82595 1.871855,0.467965 0.659014,-0.329506 3.444217,-5.44711 2.807788,-6.083538 -0.63336,-0.63336 -0.816137,2.721619 -0.467963,6.551502 0.171807,1.889884 0.764119,3.725689 0.935929,5.615573 0.167616,1.84378 1.094581,8.264707 0,9.359288 -0.131943,0.13194 -1.830015,-0.0084 -1.871859,0 -0.483698,0.09674 -0.917326,0.386871 -1.403895,0.467966 -1.406318,0.234387 -7.491806,0.0088 -6.083535,-2.807787 0.451551,-0.903108 3.741822,-2.805893 4.679643,-3.743717"
       id="path16" />
    <path
       style="fill:none;stroke:#000000;stroke-width:0.264583"
       d="m 94.06085,47.732373 c 2.206006,-0.133819 -0.5515,1.788321 0,2.339821 0.220602,0.220602 0.71533,0.220602 0.935929,0 0.593985,-0.593984 -0.56026,-1.588484 -0.935929,-2.339821 z"
       id="path17" />
    <text
       xml:space="preserve"
       transform="scale(0.26458333)"
       id="text19"
       style="fill:none;stroke:#000000;font-size:26.66666667px;white-space:pre;shape-inside:url(#rect19)" />
    <text
       xml:space="preserve"
       style="font-size:7.05556px;fill:none;stroke:#000000;stroke-width:0.264583"
       x="66.450951"
       y="159.57587"
       id="text20"><tspan
         sodipodi:role="line"
         id="tspan20"
         style="fill:#000000;stroke:none;stroke-width:0.264583"
         x="66.450951"
         y="159.57587" /></text>
    <text
       xml:space="preserve"
       style="font-size:7.05556px;fill:#000000;stroke:none;stroke-width:0.264583"
       x="20.122471"
       y="153.49234"
       id="text21"><tspan
         sodipodi:role="line"
         id="tspan21"
         style="font-style:normal;font-variant:normal;font-weight:normal;font-stretch:normal;font-family:'Fira Code';-inkscape-font-specification:'Fira Code';stroke-width:0.264583"
         x="20.122471"
         y="153.49234">World X = 2(x - y)</tspan><tspan
         sodipodi:role="line"
         style="font-style:normal;font-variant:normal;font-weight:normal;font-stretch:normal;font-family:'Fira Code';-inkscape-font-specification:'Fira Code';stroke-width:0.264583"
         x="20.122471"
         y="162.36938"
         id="tspan22">World Y = -(x + y)</tspan></text>
    <path
       style="fill:none;stroke:#808080;stroke-width:0.264583"
       d="M 32.289546,47.264407 167.99923,48.200336"
       id="path22" />
    <path
       style="fill:none;stroke:#808080;stroke-width:0.264583"
       d="M 24.802115,67.854842 175.0187,68.322808"
       id="path23" />
    <path
       style="fill:none;stroke:#808080;stroke-width:0.264583"
       d="M 1.8718577,87.509349 164.72348,86.105457"
       id="path24" />
    <path
       style="fill:none;stroke:#808080;stroke-width:0.264583"
       d="M 11.231146,106.69589 135.24172,104.82403"
       id="path25" />
    <path
       style="fill:none;stroke:#808080;stroke-width:0.264583"
       d="M 92.656958,24.802115 94.528816,136.64561"
       id="path26" />
    <path
       style="fill:none;stroke:#808080;stroke-width:0.264583"
       d="m 63.175199,23.866186 4.21168,113.247394"
       id="path27" />
    <path
       style="fill:none;stroke:#808080;stroke-width:0.264583"
       d="m 33.225475,34.161404 4.679643,99.208456"
       id="path28" />
    <path
       style="fill:none;stroke:#808080;stroke-width:0.264583"
       d="M 124.47854,30.885653 124.9465,134.30579"
       id="path29" />
    <path
       style="fill:none;stroke:#808080;stroke-width:0.264583"
       d="M 77.214131,24.802115 82.829703,137.58154"
       id="path30" />
    <path
       style="fill:none;stroke:#808080;stroke-width:0.264583"
       d="m 108.09978,25.270079 2.33983,108.567751"
       id="path31" />
    <path
       style="fill:none;stroke:#808080;stroke-width:0.264583"
       d="M 48.668302,25.270079 50.540157,140.85729"
       id="path32" />
    <path
       style="fill:none;stroke:#808080;stroke-width:0.264583"
       d="M 18.718577,46.796443 22.462293,131.498"
       id="path33" />
    <path
       style="fill:none;stroke:#808080;stroke-width:0.264583"
       d="m 137.11358,37.437155 1.87186,98.272525"
       id="path34" />
  </g>
</svg>
